<svg xmlns="http://www.w3.org/2000/svg" xmlns:xlink="http://www.w3.org/1999/xlink" viewBox="0 0 115 162"><script/><defs><linearGradient id="a" x1="-6.27" y1="115.86" x2="119.24" y2="43.39" gradientUnits="userSpaceOnUse"><stop offset=".13" stop-color="#fc6f06"/><stop offset=".33" stop-color="#d55632"/><stop offset=".78" stop-color="#7216a0"/><stop offset=".92" stop-color="#5202c4"/></linearGradient><linearGradient xmlns:xlink="http://www.w3.org/1999/xlink" id="b" x1="-3.28" y1="94.86" x2="16.73" y2="83.3" xlink:href="#a"/><linearGradient xmlns:xlink="http://www.w3.org/1999/xlink" id="c" x1="58.33" y1="119.44" x2="125.59" y2="80.6" xlink:href="#a"/><linearGradient xmlns:xlink="http://www.w3.org/1999/xlink" id="d" x1="-3.18" y1="94.48" x2="44.66" y2="66.86" xlink:href="#a"/><linearGradient xmlns:xlink="http://www.w3.org/1999/xlink" id="e" x1="25.44" y1="119.04" x2="118.71" y2="65.19" xlink:href="#a"/><linearGradient xmlns:xlink="http://www.w3.org/1999/xlink" id="f" x1="80.7" y1="134.28" x2="105.01" y2="120.24" xlink:href="#a"/></defs><path d="M87.7 0l1.4.4a13.8 13.8 0 0110.9 12 13.2 13.2 0 01-1.1 7.1l-5.4 12.2-53.7 118.7a14.3 14.3 0 01-9.1 8.2A13.9 13.9 0 0113 147.1a14.4 14.4 0 011.5-8.4c5-11 9.9-22.1 14.9-33.1Q51.3 57.5 73 9.3a15.6 15.6 0 014.2-6A15.1 15.1 0 0184 .2l.7-.2z" fill="url(#a)"/><path d="M66 162l-.7-.2a6.9 6.9 0 01-5.2-7.6 6.8 6.8 0 016.7-5.9 6.8 6.8 0 011.7 13.4l-.7.3z" fill="#fc6f06"/><path d="M0 100.3c.5 0 .5-.4.6-.7l4.9-10.8 5.2-11.4.4-.9 2.3 1c-3.7 8.1-7.3 16-10.9 24.1L0 100.5z" fill="url(#b)"/><path d="M76.1 142.7c-5.3 0-8.7-5-6.7-9.5 1-2.6 2.2-5 3.3-7.5 9.7-21.2 19.3-42.4 29-63.7a10.3 10.3 0 011.8-2.8 6.9 6.9 0 018.6-.6 6.6 6.6 0 012.4 8.1c-.9 2.4-2 4.7-3.1 7-9.7 21.5-19.5 42.9-29.2 64.3l-.8 1.5a6.5 6.5 0 01-5.3 3.2z" fill="url(#c)"/><path d="M4.3 106a5.9 5.9 0 01.7-2.5c3.3-7.3 6.6-14.6 10-21.9 4.2-9.4 8.5-18.7 12.7-28.1a6.5 6.5 0 011.6-2.1 4.9 4.9 0 017.5 5.7c-.8 1.8-1.7 3.6-2.5 5.5q-10.2 22.5-20.5 45a8.2 8.2 0 01-1.2 2 4.9 4.9 0 01-5.3 1.1 5.1 5.1 0 01-3-4.7z" fill="url(#d)"/><path d="M98.2 32.5l2.3 1.1L46 151.7l-2.3-1C61.8 111.3 80 72 98.2 32.5z" fill="url(#e)"/><path d="M98.5 111.8l2.3 1.1-13.6 29.8-2.3-1.1z" fill="url(#f)"/><path d="M38.6 36.6a5 5 0 014.8 4.9 4.9 4.9 0 01-9.7-.1 4.9 4.9 0 014.9-4.8z" fill="#5202c4"/></svg>